# xmcd
# 
# Track frame offsets:
#     150
#     17601
#     30496
# 
# Disc length: 621
# 
# Revision: 0
# Processed by: cddbd v1.5.2PL0 Copyright (c) Steve Scherf et al.
# Submitted via: fre:ac v1.0.17
# 
DISCID=15026b03
DTITLE=Nirvana - All Apologies
DYEAR=1993
DGENRE=Grunge
TTITLE0=All Apologies (LP Version)
TTITLE1=Rape Me (LP Version)
TTITLE2=Moist Vagina (Previously Unreleased)
EXTD=YEAR: 1996
EXTT0=
EXTT1=
EXTT2=
PLAYORDER=
